<svg xmlns="http://www.w3.org/2000/svg" viewBox="0 0 250 106" role="img" aria-label="FIEMA">
  <title>FIEMA — Federação das Indústrias do Maranhão</title>
  <!-- Wordmark: azul #0D4093 -->
  <g transform="translate(0,106) scale(0.1,-0.1)" fill="#0D4093" stroke="none">
    <path d="M510 794 c-8 -1 -32 -5 -52 -9 -43 -7 -95 -47 -110 -84 -11 -28 -78
-383 -78 -413 0 -17 7 -19 73 -16 l72 3 17 95 c9 52 17 96 17 98 1 1 39 2 86
2 95 0 101 4 107 76 l3 39 -88 3 -89 3 7 27 c10 42 31 52 117 52 43 0 78 3 78
8 1 4 5 26 9 49 6 29 5 46 -3 52 -11 8 -138 20 -166 15z"/>
    <path d="M1074 789 c-106 -14 -131 -52 -169 -261 -32 -173 -27 -202 33 -240 33
-20 49 -23 140 -22 56 0 107 5 112 10 5 5 12 33 16 62 l7 52 -86 0 c-47 0 -88
3 -90 8 -3 4 -2 22 0 40 l5 32 89 0 c48 0 90 4 93 8 3 5 8 32 12 60 l7 52 -87
0 c-83 0 -86 1 -86 23 0 44 14 52 107 57 l88 5 9 48 c6 29 6 51 0 56 -13 12
-138 18 -200 10z"/>
    <path d="M1352 781 c-15 -9 -27 -64 -67 -306 -14 -82 -28 -162 -31 -177 l-6
-28 71 0 c80 0 71 -12 96 135 10 55 21 104 25 108 4 5 16 -12 26 -37 18 -44
21 -46 61 -46 38 0 44 4 78 50 21 28 39 49 41 48 1 -2 -8 -57 -21 -123 -13
-66 -20 -124 -16 -128 5 -4 37 -7 72 -5 l63 3 8 35 c25 117 79 454 74 466 -6
16 -97 20 -124 5 -9 -5 -46 -50 -82 -100 -36 -49 -67 -90 -70 -90 -3 -1 -21
38 -40 85 -19 48 -40 93 -48 100 -15 15 -89 19 -110 5z"/>
    <path d="M2015 780 c-11 -4 -30 -18 -41 -31 -20 -22 -194 -444 -194 -469 0 -6
30 -10 74 -10 l75 0 19 53 20 52 56 3 c53 3 56 2 56 -21 0 -14 3 -39 6 -56
l7 -31 68 0 c37 0 70 3 72 8 9 13 -13 437 -24 463 -6 15 -22 31 -35 38 -29
13 -129 14 -159 1z m65 -200 l0 -80 -30 0 c-16 0 -30 4 -30 9 0 13 51 151 56
151 2 0 4 -36 4 -80z"/>
    <path d="M788 634 l-76 -36 -26 -138 c-14 -76 -26 -149 -26 -164 0 -26 1 -26
69 -26 58 0 71 3 75 18 9 29 67 374 63 378 -2 2 -37 -13 -79 -32z"/>
  </g>
  <!-- Acento ciano no I: #008AD1 -->
  <g transform="translate(0,106) scale(0.1,-0.1)" fill="#008AD1" stroke="none">
    <path d="M753 782 c-11 -7 -37 -122 -28 -130 2 -3 38 10 79 28 63 28 76 38 81
61 4 16 4 33 0 39 -7 11 -114 14 -132 2z"/>
  </g>
</svg>
